<svg xmlns="http://www.w3.org/2000/svg" xmlns:xlink="http://www.w3.org/1999/xlink" width="185.321" height="124.905" viewBox="0 0 185.321 124.905">
  <defs>
    <linearGradient id="linear-gradient" x1="0.53" y1="0.087" x2="1.128" y2="1.839" gradientUnits="objectBoundingBox">
      <stop offset="0" stop-color="#fff"/>
      <stop offset="1" stop-color="#666"/>
    </linearGradient>
    <linearGradient id="linear-gradient-2" x1="-0.152" y1="0.273" x2="2.25" y2="2.134" xlink:href="#linear-gradient"/>
    <linearGradient id="linear-gradient-3" x1="-0.307" y1="-0.125" x2="2.095" y2="1.736" xlink:href="#linear-gradient"/>
    <linearGradient id="linear-gradient-4" x1="0.325" y1="-1.394" x2="0.744" y2="2.033" xlink:href="#linear-gradient"/>
    <linearGradient id="linear-gradient-6" x1="0.381" y1="-0.013" x2="0.799" y2="3.42" xlink:href="#linear-gradient"/>
    <linearGradient id="linear-gradient-7" x1="0.5" y1="-0.08" x2="0.5" y2="1.501" xlink:href="#linear-gradient"/>
    <linearGradient id="linear-gradient-8" x1="0.5" y1="-0.083" x2="0.5" y2="1.925" xlink:href="#linear-gradient"/>
    <linearGradient id="linear-gradient-9" x1="0.5" y1="-0.085" x2="0.5" y2="1.939" xlink:href="#linear-gradient"/>
    <linearGradient id="linear-gradient-10" x1="0.5" y1="-0.083" x2="0.5" y2="1.925" xlink:href="#linear-gradient"/>
    <linearGradient id="linear-gradient-11" x1="0.5" y1="0.046" x2="0.5" y2="0.99" xlink:href="#linear-gradient"/>
    <linearGradient id="linear-gradient-12" x1="0.5" y1="0.064" x2="0.5" y2="1.274" xlink:href="#linear-gradient"/>
    <linearGradient id="linear-gradient-13" x1="0.5" y1="0.066" x2="0.5" y2="1.265" xlink:href="#linear-gradient"/>
    <linearGradient id="linear-gradient-14" x1="0.5" y1="0.052" x2="0.5" y2="1.029" xlink:href="#linear-gradient"/>
  </defs>
  <g id="Group_10880" data-name="Group 10880" transform="translate(-867 -65.016)">
    <g id="Layer_1-2" transform="translate(867 65.016)">
      <g id="Group_10979" data-name="Group 10979" transform="translate(0 0)">
        <g id="Group_10973" data-name="Group 10973" transform="translate(67.914 29.842)">
          <g id="Group_10972" data-name="Group 10972" transform="translate(0 11.419)">
            <path id="Path_22761" data-name="Path 22761" d="M523.631,344.183,499.6,303.53h12.576l12.638,21.416,12.7-21.416H550.09l-24.031,40.654Z" transform="translate(-499.6 -303.53)" fill="url(#linear-gradient)"/>
            <path id="Path_22762" data-name="Path 22762" d="M499.6,342l12.576,21.292v17H499.6Z" transform="translate(-499.6 -336.77)" fill="url(#linear-gradient-2)"/>
            <path id="Path_22763" data-name="Path 22763" d="M791.085,380.288H778.51v-17L791.085,342Z" transform="translate(-740.596 -336.77)" fill="url(#linear-gradient-3)"/>
          </g>
          <path id="Path_22764" data-name="Path 22764" d="M640.53,219.53l6.757,11.431H643.75l-3.554,7.7-3.571-7.7H633.09l6.758-11.431Z" transform="translate(-614.944 -219.53)" fill="#4dffff"/>
        </g>
        <g id="Group_10974" data-name="Group 10974" transform="translate(30.268 69.398)">
          <circle id="Ellipse_102" data-name="Ellipse 102" cx="2.462" cy="2.462" r="2.462" fill="#4dffff"/>
          <path id="Path_22765" data-name="Path 22765" d="M243.708,541.064c10.4,44.956,64.755,62.814,99.943,33.076a62.307,62.307,0,0,0,20.967-35.98,62.582,62.582,0,0,1-20.593,36.416c-28.5,25.027-73.408,18.573-93.985-13.221a63.021,63.021,0,0,1-8.57-19.767l2.238-.525Z" transform="translate(-238.913 -534.401)" fill="url(#linear-gradient-4)"/>
          <path id="Path_22766" data-name="Path 22766" d="M243.708,541.064c10.4,44.956,64.755,62.814,99.943,33.076a62.307,62.307,0,0,0,20.967-35.98,62.582,62.582,0,0,1-20.593,36.416c-28.5,25.027-73.408,18.573-93.985-13.221a63.021,63.021,0,0,1-8.57-19.767l2.238-.525Z" transform="translate(-238.913 -534.401)" fill="url(#linear-gradient-4)"/>
        </g>
        <g id="Group_10975" data-name="Group 10975" transform="translate(31.928)">
          <circle id="Ellipse_103" data-name="Ellipse 103" cx="2.462" cy="2.462" r="2.462" transform="translate(120.776 50.671)" fill="#4dffff"/>
          <path id="Path_22767" data-name="Path 22767" d="M355.782,48.929c-10.333-44.971-64.666-62.905-99.9-33.219A62.289,62.289,0,0,0,234.87,51.66a62.582,62.582,0,0,1,20.645-36.386c28.535-24.987,73.432-18.468,93.963,13.355a63.017,63.017,0,0,1,8.542,19.779l-2.239.522h0Z" transform="translate(-234.87 0)" fill="url(#linear-gradient-6)"/>
        </g>
        <g id="Group_10978" data-name="Group 10978" transform="translate(0 58.955)">
          <g id="Group_10976" data-name="Group 10976" transform="translate(145.846 0.03)">
            <path id="Path_22768" data-name="Path 22768" d="M1083.251,435v9.638l-2.055-2.049V437.16h-2.1v5.429h-2.049V437.16h-2.108v5.429h-2.049V435h10.359Z" transform="translate(-1072.89 -434.852)" fill="url(#linear-gradient-7)"/>
            <path id="Path_22769" data-name="Path 22769" d="M1163.534,441.5h-8.945V433.91h1.833v5.37h5.4v-5.37h1.713Z" transform="translate(-1143.484 -433.91)" fill="url(#linear-gradient-8)"/>
            <path id="Path_22770" data-name="Path 22770" d="M1234.845,434.01v2.13h-8.975v-2.13Zm0,2.666v4.864h-6.86l-.03-.03-2.085-2.078v-.022h6.9v-.648h-6.9v-2.085Z" transform="translate(-1205.074 -433.996)" fill="url(#linear-gradient-9)"/>
            <path id="Path_22771" data-name="Path 22771" d="M1304.653,433.91l1.676,2.16h-3.545V441.5h-2.2V436.07h-3.218v-2.16h7.285Z" transform="translate(-1266.855 -433.91)" fill="url(#linear-gradient-10)"/>
          </g>
          <g id="Group_10977" data-name="Group 10977">
            <path id="Path_22772" data-name="Path 22772" d="M8.93,434.13V443.8l-2.054-2.053V438.88H2.054v2.867H0v-4.823H6.877V436.3H0v-2.165H8.93Z" transform="translate(0 -434.07)" fill="url(#linear-gradient-11)"/>
            <path id="Path_22773" data-name="Path 22773" d="M80.188,433.8v2.136h-9V433.8Zm0,2.673v4.876H73.311l-.03-.03-2.091-2.084v-.022H78.1v-.65H71.19v-2.091Z" transform="translate(-61.513 -433.785)" fill="url(#linear-gradient-12)"/>
            <path id="Path_22774" data-name="Path 22774" d="M151.838,433.69v2.165H148.3V441.3h-2.2v-5.443H142.87V433.69Z" transform="translate(-123.449 -433.69)" fill="url(#linear-gradient-13)"/>
            <path id="Path_22775" data-name="Path 22775" d="M223.3,443.132l-6.914-5.115V441.4H214.33v-4.816h6.907v-.627H214.33V433.79h8.96v5.383h-1.845l1.845,1.045.008,2.912Z" transform="translate(-185.194 -433.776)" fill="url(#linear-gradient-14)"/>
            <path id="Path_22776" data-name="Path 22776" d="M294.768,433.8v7.549H285.8V433.8Zm-2.091,2.136h-4.793v3.277h4.793Z" transform="translate(-246.949 -433.785)" fill="url(#linear-gradient-12)"/>
          </g>
        </g>
      </g>
    </g>
  </g>
</svg>
